<svg xmlns="http://www.w3.org/2000/svg" width="1924.402" height="1394.594" viewBox="0 0 1924.402 1394.594">
  <g id="Group_3" data-name="Group 3" transform="translate(1 -1252.798)">
    <path id="Subtraction_1" data-name="Subtraction 1" d="M318.9,1314.843H21.622V395.5l.006-.006c.323-.306,3.323-3.125,9.06-7.8,5.561-4.535,14.9-11.788,27.8-20.588,14.5-9.892,30.453-19.685,47.42-29.107,21.208-11.776,44.066-23,67.941-33.366,60.771-26.38,128.405-47.4,201.025-62.473,20.991-4.357,42.686-8.269,64.48-11.625,22.942-3.533,46.626-6.549,70.394-8.963,24.929-2.532,50.64-4.473,76.42-5.768,26.95-1.355,54.727-2.041,82.557-2.041,32.327,0,65.661.925,99.077,2.75,34.9,1.905,70.883,4.847,106.957,8.741,30.027,3.242,60.624,5.694,90.942,7.288,29.256,1.538,59.034,2.318,88.508,2.318,31.447,0,63.439-.887,95.089-2.637,30.27-1.674,61.033-4.182,91.437-7.454,28.99-3.12,58.409-7.017,87.441-11.582,27.586-4.338,55.546-9.392,83.1-15.023a1918.442,1918.442,0,0,0,282.191-80.732c36.107-13.393,71.826-27.9,106.165-43.119,27.471-12.175,54.126-24.83,79.224-37.614,22.33-11.374,39.267-20.746,49.544-26.6C1939.515,3.755,1945.466.037,1945.525,0V1064.83Z" transform="translate(-22.622 1252.798)" fill="#ffb703"/>
    <path id="Path_3" data-name="Path 3" d="M0,2563.87,1922.9,2292.4v90.49L0,2646.819Z" fill="#023047" stroke="#707070" stroke-width="1"/>
  </g>
</svg>
