<svg xmlns="http://www.w3.org/2000/svg" width="635" height="1070" viewBox="0 0 635 1070">
  <g id="Group_5" data-name="Group 5" transform="translate(-122)">
    <g id="Group_4" data-name="Group 4">
      <g id="BackImage" transform="translate(122)" fill="#219ebc" stroke="#707070" stroke-width="1">
        <path d="M0,0H635a0,0,0,0,1,0,0V970a100,100,0,0,1-100,100H100A100,100,0,0,1,0,970V0A0,0,0,0,1,0,0Z" stroke="none"/>
        <path d="M1,.5H634a.5.5,0,0,1,.5.5V970a99.5,99.5,0,0,1-99.5,99.5H100A99.5,99.5,0,0,1,.5,970V1A.5.5,0,0,1,1,.5Z" fill="none"/>
      </g>
      <path id="Intersection_1" data-name="Intersection 1" d="M108.219,1172.626a99.584,99.584,0,0,1-44.977-10.661L627.976,102.626h15.243v970a100,100,0,0,1-100,100Z" transform="translate(113.781 -102.626)" fill="#fb8500"/>
    </g>
  </g>
</svg>
